<svg height="512" viewBox="0 0 64 64" width="512" xmlns="http://www.w3.org/2000/svg"><g id="Filled_outline" data-name="Filled outline"><path d="m43 43h2s3.882 4 5 4h8s-4-4-4-8 4-8 4-8h-8c-1.118 0-5 4-5 4h-2s-3-7-7-7h-18s-9 6-9 11 9 11 9 11h18c4 0 7-7 7-7z" fill="#f98c96"/><path d="m52 43h-2a1 1 0 0 1 -.6-.2l-4-3a1 1 0 0 1 0-1.6l4-3a1 1 0 0 1 .6-.2h2v2h-1.667l-2.666 2 2.666 2h1.667z" fill="#f4f4e6"/><path d="m18 28s-9 6-9 11 9 11 9 11c11-11 0-22 0-22z" fill="#f7c4c9"/><path d="m26 56c-3 0-5-6-5-6h14l4 6z" fill="#f7c4c9"/><path d="m23 28s1-6 4-6h6l-2 6z" fill="#f7c4c9"/><path d="m13.172 36h5.657v2h-5.657z" fill="#394d5c" transform="matrix(.707 -.707 .707 .707 -21.477 22.151)"/><path d="m15 34.172h2v5.657h-2z" fill="#394d5c" transform="matrix(.707 -.707 .707 .707 -21.477 22.151)"/><g fill="#f4f4e6"><path d="m27.707 37.707-1.414-1.414 1.293-1.293-1.293-1.293 1.414-1.414 2 2a1 1 0 0 1 0 1.414z"/><path d="m27.707 45.707-1.414-1.414 1.293-1.293-1.293-1.293 1.414-1.414 2 2a1 1 0 0 1 0 1.414z"/><path d="m31.707 41.707-1.414-1.414 1.293-1.293-1.293-1.293 1.414-1.414 2 2a1 1 0 0 1 0 1.414z"/><path d="m34.707 35.707-1.414-1.414 1.293-1.293-1.293-1.293 1.414-1.414 2 2a1 1 0 0 1 0 1.414z"/><path d="m34.707 47.707-1.414-1.414 1.293-1.293-1.293-1.293 1.414-1.414 2 2a1 1 0 0 1 0 1.414z"/><path d="m38 36h2v2h-2z"/><path d="m37 40h2v2h-2z"/></g><path d="m54 38h8v2h-8z" fill="#32b1cc"/><path d="m2 38h7v2h-7z" fill="#32b1cc"/><path d="m49.4 35.2-4 3a1 1 0 0 0 0 1.6l4 3a1 1 0 0 0 .6.2h2v-2h-1.667l-2.666-2 2.666-2h1.667v-2h-2a1 1 0 0 0 -.6.2z"/><path d="m58.708 31.707a1 1 0 0 0 -.708-1.707h-8c-1.209 0-3.557 2.107-5.421 4h-.936c-.9-1.876-3.72-7-7.643-7h-3.613l1.561-4.684a1 1 0 0 0 -.948-1.316h-6c-3.071 0-4.381 4.133-4.816 6h-4.184a1.006 1.006 0 0 0 -.555.168c-.907.605-8.426 5.755-9.351 10.832h-6.094v2h6.094c.925 5.077 8.444 10.227 9.351 10.832a1.006 1.006 0 0 0 .555.168h2.3c.682 1.75 2.651 6 5.7 6h13a1 1 0 0 0 .832-1.555l-3.017-4.525c3.5-.635 5.99-5.176 6.828-6.92h.936c1.864 1.893 4.212 4 5.421 4h8a1 1 0 0 0 .707-1.707c-.034-.034-3.041-3.084-3.607-6.293h6.9v-2h-6.9c.569-3.2 3.574-6.26 3.608-6.293zm-31.708-8.707h4.612l-1.333 4h-1.892l.561-1.684-1.9-.632-.768 2.316h-2.032c.48-1.757 1.452-4 2.752-4zm-17 16c0-3.339 5.145-7.73 7.851-9.678 1.981 2.321 7.994 10.726.012 19.365-2.703-1.941-7.863-6.337-7.863-9.687zm16 16c-1.349 0-2.72-2.211-3.528-4h2.114l2.707 2.707 1.414-1.414-1.293-1.293h2.172l2.707 2.707 1.414-1.414-1.293-1.293h2.051l2.667 4zm24.079-8.993c-.608-.154-2.746-2.039-4.361-3.7a1 1 0 0 0 -.718-.307h-2a1 1 0 0 0 -.919.606c-.763 1.778-3.341 6.394-6.081 6.394h-15.764c6.82-8.394 2.4-16.559-.121-20h15.885c2.732 0 5.316 4.616 6.081 6.4a1 1 0 0 0 .919.6h2a1 1 0 0 0 .718-.3 23 23 0 0 1 4.282-3.7h5.838c-1.246 1.649-2.838 4.287-2.838 7s1.593 5.353 2.84 7z"/><path d="m17.293 39.707 1.414-1.414-1.293-1.293 1.293-1.293-1.414-1.414-1.293 1.293-1.293-1.293-1.414 1.414 1.293 1.293-1.293 1.293 1.414 1.414 1.293-1.293z"/><path d="m27.707 32.293-1.414 1.414 1.293 1.293-1.293 1.293 1.414 1.414 2-2a1 1 0 0 0 0-1.414z"/><path d="m27.707 40.293-1.414 1.414 1.293 1.293-1.293 1.293 1.414 1.414 2-2a1 1 0 0 0 0-1.414z"/><path d="m33.707 38.293-2-2-1.414 1.414 1.293 1.293-1.293 1.293 1.414 1.414 2-2a1 1 0 0 0 0-1.414z"/><path d="m34.707 35.707 2-2a1 1 0 0 0 0-1.414l-2-2-1.414 1.414 1.293 1.293-1.293 1.293z"/><path d="m34.707 42.293-1.414 1.414 1.293 1.293-1.293 1.293 1.414 1.414 2-2a1 1 0 0 0 0-1.414z"/><path d="m38 36h2v2h-2z"/><path d="m37 40h2v2h-2z"/><path d="m31.781 18.625 4-5a1 1 0 0 0 -.781-1.625h-3.919l2.7-3.375-1.562-1.25-4 5a1 1 0 0 0 .781 1.625h3.919l-2.7 3.375z"/><path d="m42.781 21.625 4-5a1 1 0 0 0 -.781-1.625h-3.919l2.7-3.375-1.562-1.25-4 5a1 1 0 0 0 .781 1.625h3.919l-2.7 3.375z"/><path d="m20.781 21.625 4-5a1 1 0 0 0 -.781-1.625h-3.919l2.7-3.375-1.562-1.25-4 5a1 1 0 0 0 .781 1.625h3.919l-2.7 3.375z"/></g></svg>